<mxfile host="Electron" modified="2023-05-11T15:14:55.050Z" agent="Mozilla/5.0 (X11; Linux x86_64) AppleWebKit/537.36 (KHTML, like Gecko) draw.io/21.2.1 Chrome/112.0.5615.87 Electron/24.1.2 Safari/537.36" etag="zG1VVi0TjeErj0cIVu4V" version="21.2.1" type="device">
  <diagram name="Page-1" id="3GO7CP0EsCOix9sJ-9DO">
    <mxGraphModel dx="1560" dy="456" grid="1" gridSize="10" guides="1" tooltips="1" connect="1" arrows="1" fold="1" page="1" pageScale="1" pageWidth="827" pageHeight="1169" math="0" shadow="0">
      <root>
        <mxCell id="0" />
        <mxCell id="1" parent="0" />
        <mxCell id="khGT0c1v8bcszN6m5ytE-5" style="edgeStyle=orthogonalEdgeStyle;orthogonalLoop=1;jettySize=auto;html=1;exitX=0.5;exitY=1;exitDx=0;exitDy=0;curved=1;endArrow=none;endFill=0;" parent="1" source="khGT0c1v8bcszN6m5ytE-1" target="khGT0c1v8bcszN6m5ytE-3" edge="1">
          <mxGeometry relative="1" as="geometry" />
        </mxCell>
        <mxCell id="khGT0c1v8bcszN6m5ytE-1" value="Big Data Engineer" style="text;html=1;strokeColor=none;fillColor=none;align=center;verticalAlign=middle;whiteSpace=wrap;rounded=0;fontStyle=1;fontFamily=Courier New;fontSize=20;" parent="1" vertex="1">
          <mxGeometry x="307" y="180" width="214" height="30" as="geometry" />
        </mxCell>
        <mxCell id="khGT0c1v8bcszN6m5ytE-2" value="" style="curved=1;endArrow=none;html=1;rounded=0;entryX=0.5;entryY=0;entryDx=0;entryDy=0;dashed=1;endFill=0;" parent="1" target="khGT0c1v8bcszN6m5ytE-1" edge="1">
          <mxGeometry width="50" height="50" relative="1" as="geometry">
            <mxPoint x="440" y="100" as="sourcePoint" />
            <mxPoint x="390" y="150" as="targetPoint" />
            <Array as="points">
              <mxPoint x="390" y="100" />
              <mxPoint x="440" y="150" />
            </Array>
          </mxGeometry>
        </mxCell>
        <mxCell id="7lGttJJsrB_2lGpmTnRl-2" style="edgeStyle=orthogonalEdgeStyle;orthogonalLoop=1;jettySize=auto;html=1;exitX=0.5;exitY=1;exitDx=0;exitDy=0;entryX=0.5;entryY=0;entryDx=0;entryDy=0;curved=1;endArrow=none;endFill=0;" edge="1" parent="1" source="khGT0c1v8bcszN6m5ytE-3" target="khGT0c1v8bcszN6m5ytE-6">
          <mxGeometry relative="1" as="geometry" />
        </mxCell>
        <mxCell id="khGT0c1v8bcszN6m5ytE-3" value="Architectural patterns &amp;amp; Best practices (video)" style="rounded=1;whiteSpace=wrap;html=1;fillColor=#376486;shadow=1;fontColor=#ffffff;fontFamily=Courier New;fontSize=14;" parent="1" vertex="1">
          <mxGeometry x="154" y="290" width="260" height="50" as="geometry" />
        </mxCell>
        <mxCell id="khGT0c1v8bcszN6m5ytE-4" value="Big Data Architectures" style="text;html=1;strokeColor=none;fillColor=none;align=center;verticalAlign=middle;whiteSpace=wrap;rounded=0;fontStyle=1;fontFamily=Courier New;fontSize=18;" parent="1" vertex="1">
          <mxGeometry x="20" y="250" width="250" height="30" as="geometry" />
        </mxCell>
        <mxCell id="khGT0c1v8bcszN6m5ytE-6" value="Horizontal vs Vertical scaling" style="rounded=1;whiteSpace=wrap;html=1;fillColor=#376486;shadow=1;fontColor=#ffffff;fontFamily=Courier New;fontSize=14;" parent="1" vertex="1">
          <mxGeometry x="414" y="460" width="260" height="50" as="geometry" />
        </mxCell>
        <mxCell id="7lGttJJsrB_2lGpmTnRl-1" value="Principles" style="text;html=1;strokeColor=none;fillColor=none;align=center;verticalAlign=middle;whiteSpace=wrap;rounded=0;fontStyle=1;fontFamily=Courier New;fontSize=18;" vertex="1" parent="1">
          <mxGeometry x="554" y="426" width="120" height="30" as="geometry" />
        </mxCell>
        <mxCell id="7lGttJJsrB_2lGpmTnRl-4" value="Map Reduce" style="rounded=1;whiteSpace=wrap;html=1;fillColor=#376486;shadow=1;fontColor=#ffffff;fontFamily=Courier New;fontSize=14;" vertex="1" parent="1">
          <mxGeometry x="414" y="520" width="260" height="50" as="geometry" />
        </mxCell>
        <mxCell id="7lGttJJsrB_2lGpmTnRl-5" value="Data Replication" style="rounded=1;whiteSpace=wrap;html=1;fillColor=#376486;shadow=1;fontColor=#ffffff;fontFamily=Courier New;fontSize=14;" vertex="1" parent="1">
          <mxGeometry x="414" y="580" width="260" height="50" as="geometry" />
        </mxCell>
        <mxCell id="7lGttJJsrB_2lGpmTnRl-6" value="Name &amp;amp; Data Nodes" style="rounded=1;whiteSpace=wrap;html=1;fillColor=#376486;shadow=1;fontColor=#ffffff;fontFamily=Courier New;fontSize=14;" vertex="1" parent="1">
          <mxGeometry x="414" y="640" width="260" height="50" as="geometry" />
        </mxCell>
        <mxCell id="7lGttJJsrB_2lGpmTnRl-28" style="edgeStyle=orthogonalEdgeStyle;orthogonalLoop=1;jettySize=auto;html=1;exitX=0.5;exitY=1;exitDx=0;exitDy=0;entryX=0.465;entryY=0.038;entryDx=0;entryDy=0;entryPerimeter=0;curved=1;endArrow=none;endFill=0;" edge="1" parent="1" source="7lGttJJsrB_2lGpmTnRl-7" target="7lGttJJsrB_2lGpmTnRl-8">
          <mxGeometry relative="1" as="geometry" />
        </mxCell>
        <mxCell id="7lGttJJsrB_2lGpmTnRl-7" value="Job &amp;amp; Task Tracker" style="rounded=1;whiteSpace=wrap;html=1;fillColor=#376486;shadow=1;fontColor=#ffffff;fontFamily=Courier New;fontSize=14;" vertex="1" parent="1">
          <mxGeometry x="414" y="700" width="260" height="50" as="geometry" />
        </mxCell>
        <mxCell id="7lGttJJsrB_2lGpmTnRl-8" value="Check the awesome Big Data List" style="rounded=1;whiteSpace=wrap;html=1;fillColor=#376486;shadow=1;fontColor=#ffffff;fontFamily=Courier New;fontSize=14;" vertex="1" parent="1">
          <mxGeometry x="154" y="860" width="260" height="50" as="geometry" />
        </mxCell>
        <mxCell id="7lGttJJsrB_2lGpmTnRl-36" style="edgeStyle=orthogonalEdgeStyle;orthogonalLoop=1;jettySize=auto;html=1;exitX=1;exitY=0.5;exitDx=0;exitDy=0;curved=1;endArrow=none;endFill=0;dashed=1;" edge="1" parent="1" source="7lGttJJsrB_2lGpmTnRl-9" target="7lGttJJsrB_2lGpmTnRl-32">
          <mxGeometry relative="1" as="geometry" />
        </mxCell>
        <mxCell id="7lGttJJsrB_2lGpmTnRl-37" style="edgeStyle=orthogonalEdgeStyle;orthogonalLoop=1;jettySize=auto;html=1;exitX=1;exitY=0.5;exitDx=0;exitDy=0;entryX=0;entryY=0.5;entryDx=0;entryDy=0;curved=1;endArrow=none;endFill=0;dashed=1;" edge="1" parent="1" source="7lGttJJsrB_2lGpmTnRl-9" target="7lGttJJsrB_2lGpmTnRl-31">
          <mxGeometry relative="1" as="geometry" />
        </mxCell>
        <mxCell id="7lGttJJsrB_2lGpmTnRl-38" style="edgeStyle=orthogonalEdgeStyle;orthogonalLoop=1;jettySize=auto;html=1;exitX=1;exitY=0.5;exitDx=0;exitDy=0;entryX=0;entryY=0.5;entryDx=0;entryDy=0;curved=1;endArrow=none;endFill=0;dashed=1;" edge="1" parent="1" source="7lGttJJsrB_2lGpmTnRl-9" target="7lGttJJsrB_2lGpmTnRl-33">
          <mxGeometry relative="1" as="geometry" />
        </mxCell>
        <mxCell id="7lGttJJsrB_2lGpmTnRl-9" value="Hadoop (Large Data)" style="rounded=1;whiteSpace=wrap;html=1;fillColor=#376486;shadow=1;fontColor=#ffffff;fontFamily=Courier New;fontSize=14;" vertex="1" parent="1">
          <mxGeometry x="154" y="920" width="260" height="50" as="geometry" />
        </mxCell>
        <mxCell id="7lGttJJsrB_2lGpmTnRl-10" value="Spark (in memory)" style="rounded=1;whiteSpace=wrap;html=1;fillColor=#376486;shadow=1;fontColor=#ffffff;fontFamily=Courier New;fontSize=14;" vertex="1" parent="1">
          <mxGeometry x="154" y="980" width="260" height="50" as="geometry" />
        </mxCell>
        <mxCell id="7lGttJJsrB_2lGpmTnRl-11" value="RAPIDS (on GPU)" style="rounded=1;whiteSpace=wrap;html=1;fillColor=#376486;shadow=1;fontColor=#ffffff;fontFamily=Courier New;fontSize=14;" vertex="1" parent="1">
          <mxGeometry x="154" y="1040" width="260" height="50" as="geometry" />
        </mxCell>
        <mxCell id="7lGttJJsrB_2lGpmTnRl-12" value="Flume, Scribe: For Unstruct Data" style="rounded=1;whiteSpace=wrap;html=1;fillColor=#376486;shadow=1;fontColor=#ffffff;fontFamily=Courier New;fontSize=14;" vertex="1" parent="1">
          <mxGeometry x="154" y="1100" width="260" height="50" as="geometry" />
        </mxCell>
        <mxCell id="7lGttJJsrB_2lGpmTnRl-13" value="Data Warehouse with Hive" style="rounded=1;whiteSpace=wrap;html=1;fillColor=#376486;shadow=1;fontColor=#ffffff;fontFamily=Courier New;fontSize=14;" vertex="1" parent="1">
          <mxGeometry x="154" y="1160" width="260" height="50" as="geometry" />
        </mxCell>
        <mxCell id="7lGttJJsrB_2lGpmTnRl-14" value="Data Warehouse with Hive" style="rounded=1;whiteSpace=wrap;html=1;fillColor=#376486;shadow=1;fontColor=#ffffff;fontFamily=Courier New;fontSize=14;" vertex="1" parent="1">
          <mxGeometry x="154" y="1220" width="260" height="50" as="geometry" />
        </mxCell>
        <mxCell id="7lGttJJsrB_2lGpmTnRl-35" style="edgeStyle=orthogonalEdgeStyle;orthogonalLoop=1;jettySize=auto;html=1;exitX=1;exitY=0.5;exitDx=0;exitDy=0;entryX=0.16;entryY=0.55;entryDx=0;entryDy=0;entryPerimeter=0;curved=1;dashed=1;endArrow=none;endFill=0;" edge="1" parent="1" source="7lGttJJsrB_2lGpmTnRl-15" target="7lGttJJsrB_2lGpmTnRl-34">
          <mxGeometry relative="1" as="geometry" />
        </mxCell>
        <mxCell id="7lGttJJsrB_2lGpmTnRl-15" value="Elastic (EKL) Stack" style="rounded=1;whiteSpace=wrap;html=1;fillColor=#376486;shadow=1;fontColor=#ffffff;fontFamily=Courier New;fontSize=14;" vertex="1" parent="1">
          <mxGeometry x="154" y="1280" width="260" height="50" as="geometry" />
        </mxCell>
        <mxCell id="7lGttJJsrB_2lGpmTnRl-16" value="Avro" style="rounded=1;whiteSpace=wrap;html=1;fillColor=#376486;shadow=1;fontColor=#ffffff;fontFamily=Courier New;fontSize=14;" vertex="1" parent="1">
          <mxGeometry x="154" y="1340" width="260" height="50" as="geometry" />
        </mxCell>
        <mxCell id="7lGttJJsrB_2lGpmTnRl-17" value="Flink" style="rounded=1;whiteSpace=wrap;html=1;fillColor=#376486;shadow=1;fontColor=#ffffff;fontFamily=Courier New;fontSize=14;" vertex="1" parent="1">
          <mxGeometry x="154" y="1400" width="260" height="50" as="geometry" />
        </mxCell>
        <mxCell id="7lGttJJsrB_2lGpmTnRl-18" value="Dask" style="rounded=1;whiteSpace=wrap;html=1;fillColor=#376486;shadow=1;fontColor=#ffffff;fontFamily=Courier New;fontSize=14;" vertex="1" parent="1">
          <mxGeometry x="154" y="1460" width="260" height="50" as="geometry" />
        </mxCell>
        <mxCell id="7lGttJJsrB_2lGpmTnRl-19" value="Numba" style="rounded=1;whiteSpace=wrap;html=1;fillColor=#376486;shadow=1;fontColor=#ffffff;fontFamily=Courier New;fontSize=14;" vertex="1" parent="1">
          <mxGeometry x="154" y="1520" width="260" height="50" as="geometry" />
        </mxCell>
        <mxCell id="7lGttJJsrB_2lGpmTnRl-20" value="Onnx" style="rounded=1;whiteSpace=wrap;html=1;fillColor=#376486;shadow=1;fontColor=#ffffff;fontFamily=Courier New;fontSize=14;" vertex="1" parent="1">
          <mxGeometry x="154" y="1580" width="260" height="50" as="geometry" />
        </mxCell>
        <mxCell id="7lGttJJsrB_2lGpmTnRl-21" value="OpenVino" style="rounded=1;whiteSpace=wrap;html=1;fillColor=#376486;shadow=1;fontColor=#ffffff;fontFamily=Courier New;fontSize=14;" vertex="1" parent="1">
          <mxGeometry x="154" y="1640" width="260" height="50" as="geometry" />
        </mxCell>
        <mxCell id="7lGttJJsrB_2lGpmTnRl-22" value="MLFlow" style="rounded=1;whiteSpace=wrap;html=1;fillColor=#376486;shadow=1;fontColor=#ffffff;fontFamily=Courier New;fontSize=14;" vertex="1" parent="1">
          <mxGeometry x="154" y="1700" width="260" height="50" as="geometry" />
        </mxCell>
        <mxCell id="7lGttJJsrB_2lGpmTnRl-23" value="Kafka &amp;amp; KSQL" style="rounded=1;whiteSpace=wrap;html=1;fillColor=#376486;shadow=1;fontColor=#ffffff;fontFamily=Courier New;fontSize=14;" vertex="1" parent="1">
          <mxGeometry x="154" y="1760" width="260" height="50" as="geometry" />
        </mxCell>
        <mxCell id="7lGttJJsrB_2lGpmTnRl-41" style="edgeStyle=orthogonalEdgeStyle;orthogonalLoop=1;jettySize=auto;html=1;exitX=0;exitY=0.5;exitDx=0;exitDy=0;entryX=1;entryY=0.5;entryDx=0;entryDy=0;curved=1;dashed=1;endArrow=none;endFill=0;" edge="1" parent="1" source="7lGttJJsrB_2lGpmTnRl-24" target="7lGttJJsrB_2lGpmTnRl-39">
          <mxGeometry relative="1" as="geometry" />
        </mxCell>
        <mxCell id="7lGttJJsrB_2lGpmTnRl-42" style="edgeStyle=orthogonalEdgeStyle;orthogonalLoop=1;jettySize=auto;html=1;exitX=0;exitY=0.5;exitDx=0;exitDy=0;entryX=1;entryY=0.5;entryDx=0;entryDy=0;curved=1;dashed=1;endArrow=none;endFill=0;" edge="1" parent="1" source="7lGttJJsrB_2lGpmTnRl-24" target="7lGttJJsrB_2lGpmTnRl-40">
          <mxGeometry relative="1" as="geometry" />
        </mxCell>
        <mxCell id="7lGttJJsrB_2lGpmTnRl-24" value="Databases" style="rounded=1;whiteSpace=wrap;html=1;fillColor=#376486;shadow=1;fontColor=#ffffff;fontFamily=Courier New;fontSize=14;" vertex="1" parent="1">
          <mxGeometry x="153" y="1820" width="260" height="50" as="geometry" />
        </mxCell>
        <mxCell id="7lGttJJsrB_2lGpmTnRl-45" style="edgeStyle=orthogonalEdgeStyle;orthogonalLoop=1;jettySize=auto;html=1;exitX=1;exitY=0.5;exitDx=0;exitDy=0;entryX=0;entryY=0.5;entryDx=0;entryDy=0;curved=1;dashed=1;endArrow=none;endFill=0;" edge="1" parent="1" source="7lGttJJsrB_2lGpmTnRl-25" target="7lGttJJsrB_2lGpmTnRl-43">
          <mxGeometry relative="1" as="geometry" />
        </mxCell>
        <mxCell id="7lGttJJsrB_2lGpmTnRl-46" style="edgeStyle=orthogonalEdgeStyle;orthogonalLoop=1;jettySize=auto;html=1;exitX=1;exitY=0.5;exitDx=0;exitDy=0;entryX=0;entryY=0.5;entryDx=0;entryDy=0;curved=1;dashed=1;endArrow=none;endFill=0;" edge="1" parent="1" source="7lGttJJsrB_2lGpmTnRl-25" target="7lGttJJsrB_2lGpmTnRl-44">
          <mxGeometry relative="1" as="geometry" />
        </mxCell>
        <mxCell id="7lGttJJsrB_2lGpmTnRl-25" value="Scalability" style="rounded=1;whiteSpace=wrap;html=1;fillColor=#376486;shadow=1;fontColor=#ffffff;fontFamily=Courier New;fontSize=14;" vertex="1" parent="1">
          <mxGeometry x="154" y="1880" width="260" height="50" as="geometry" />
        </mxCell>
        <mxCell id="7lGttJJsrB_2lGpmTnRl-50" style="edgeStyle=orthogonalEdgeStyle;orthogonalLoop=1;jettySize=auto;html=1;exitX=0;exitY=0.5;exitDx=0;exitDy=0;entryX=1;entryY=0.5;entryDx=0;entryDy=0;curved=1;dashed=1;endArrow=none;endFill=0;" edge="1" parent="1" source="7lGttJJsrB_2lGpmTnRl-26" target="7lGttJJsrB_2lGpmTnRl-47">
          <mxGeometry relative="1" as="geometry" />
        </mxCell>
        <mxCell id="7lGttJJsrB_2lGpmTnRl-51" style="edgeStyle=orthogonalEdgeStyle;orthogonalLoop=1;jettySize=auto;html=1;exitX=0;exitY=0.5;exitDx=0;exitDy=0;entryX=1;entryY=0.5;entryDx=0;entryDy=0;curved=1;dashed=1;endArrow=none;endFill=0;" edge="1" parent="1" source="7lGttJJsrB_2lGpmTnRl-26" target="7lGttJJsrB_2lGpmTnRl-49">
          <mxGeometry relative="1" as="geometry" />
        </mxCell>
        <mxCell id="7lGttJJsrB_2lGpmTnRl-52" style="edgeStyle=orthogonalEdgeStyle;orthogonalLoop=1;jettySize=auto;html=1;exitX=0;exitY=0.5;exitDx=0;exitDy=0;curved=1;dashed=1;endArrow=none;endFill=0;" edge="1" parent="1" source="7lGttJJsrB_2lGpmTnRl-26" target="7lGttJJsrB_2lGpmTnRl-48">
          <mxGeometry relative="1" as="geometry" />
        </mxCell>
        <mxCell id="7lGttJJsrB_2lGpmTnRl-26" value="Cloud Services" style="rounded=1;whiteSpace=wrap;html=1;fillColor=#376486;shadow=1;fontColor=#ffffff;fontFamily=Courier New;fontSize=14;" vertex="1" parent="1">
          <mxGeometry x="154" y="1940" width="260" height="50" as="geometry" />
        </mxCell>
        <mxCell id="7lGttJJsrB_2lGpmTnRl-54" style="edgeStyle=orthogonalEdgeStyle;orthogonalLoop=1;jettySize=auto;html=1;exitX=0.5;exitY=1;exitDx=0;exitDy=0;entryX=0.5;entryY=0;entryDx=0;entryDy=0;curved=1;dashed=1;endArrow=none;endFill=0;" edge="1" parent="1" source="7lGttJJsrB_2lGpmTnRl-27" target="7lGttJJsrB_2lGpmTnRl-53">
          <mxGeometry relative="1" as="geometry" />
        </mxCell>
        <mxCell id="7lGttJJsrB_2lGpmTnRl-27" value="Awesome production ML" style="rounded=1;whiteSpace=wrap;html=1;fillColor=#376486;shadow=1;fontColor=#ffffff;fontFamily=Courier New;fontSize=14;" vertex="1" parent="1">
          <mxGeometry x="153" y="2000" width="260" height="50" as="geometry" />
        </mxCell>
        <mxCell id="7lGttJJsrB_2lGpmTnRl-29" value="Tools" style="text;html=1;strokeColor=none;fillColor=none;align=center;verticalAlign=middle;whiteSpace=wrap;rounded=0;fontStyle=1;fontFamily=Courier New;fontSize=18;" vertex="1" parent="1">
          <mxGeometry x="154" y="824" width="84" height="30" as="geometry" />
        </mxCell>
        <mxCell id="7lGttJJsrB_2lGpmTnRl-31" value="HDFS" style="rounded=1;whiteSpace=wrap;html=1;fillColor=#555758;shadow=1;fontColor=#ffffff;fontFamily=Courier New;fontSize=14;" vertex="1" parent="1">
          <mxGeometry x="500" y="890" width="270" height="30" as="geometry" />
        </mxCell>
        <mxCell id="7lGttJJsrB_2lGpmTnRl-32" value="Loading Data with Sqoop Pig" style="rounded=1;whiteSpace=wrap;html=1;fillColor=#555758;shadow=1;fontColor=#ffffff;fontFamily=Courier New;fontSize=14;" vertex="1" parent="1">
          <mxGeometry x="500" y="930" width="270" height="30" as="geometry" />
        </mxCell>
        <mxCell id="7lGttJJsrB_2lGpmTnRl-33" value="Storm: Hadoop Realtime" style="rounded=1;whiteSpace=wrap;html=1;fillColor=#555758;shadow=1;fontColor=#ffffff;fontFamily=Courier New;fontSize=14;" vertex="1" parent="1">
          <mxGeometry x="500" y="970" width="270" height="30" as="geometry" />
        </mxCell>
        <mxCell id="7lGttJJsrB_2lGpmTnRl-34" value="to get data (eg. logging), search, analyze and visualize it in realtime" style="ellipse;shape=cloud;whiteSpace=wrap;html=1;spacingLeft=25;spacingRight=20;spacingTop=5;spacingBottom=5;" vertex="1" parent="1">
          <mxGeometry x="510" y="1177.5" width="184" height="135" as="geometry" />
        </mxCell>
        <mxCell id="7lGttJJsrB_2lGpmTnRl-39" value="Cassandra" style="rounded=1;whiteSpace=wrap;html=1;fillColor=#555758;shadow=1;fontColor=#ffffff;fontFamily=Courier New;fontSize=14;" vertex="1" parent="1">
          <mxGeometry x="-100" y="1810" width="180" height="30" as="geometry" />
        </mxCell>
        <mxCell id="7lGttJJsrB_2lGpmTnRl-40" value="MongoDB, Neo4j" style="rounded=1;whiteSpace=wrap;html=1;fillColor=#555758;shadow=1;fontColor=#ffffff;fontFamily=Courier New;fontSize=14;" vertex="1" parent="1">
          <mxGeometry x="-100" y="1850" width="180" height="30" as="geometry" />
        </mxCell>
        <mxCell id="7lGttJJsrB_2lGpmTnRl-43" value="Zookeeper" style="rounded=1;whiteSpace=wrap;html=1;fillColor=#555758;shadow=1;fontColor=#ffffff;fontFamily=Courier New;fontSize=14;" vertex="1" parent="1">
          <mxGeometry x="494" y="1870" width="180" height="30" as="geometry" />
        </mxCell>
        <mxCell id="7lGttJJsrB_2lGpmTnRl-44" value="Kubernetes" style="rounded=1;whiteSpace=wrap;html=1;fillColor=#555758;shadow=1;fontColor=#ffffff;fontFamily=Courier New;fontSize=14;" vertex="1" parent="1">
          <mxGeometry x="494" y="1910" width="180" height="30" as="geometry" />
        </mxCell>
        <mxCell id="7lGttJJsrB_2lGpmTnRl-47" value="AWS SageMaker" style="rounded=1;whiteSpace=wrap;html=1;fillColor=#555758;shadow=1;fontColor=#ffffff;fontFamily=Courier New;fontSize=14;" vertex="1" parent="1">
          <mxGeometry x="-130" y="1895" width="210" height="40" as="geometry" />
        </mxCell>
        <mxCell id="7lGttJJsrB_2lGpmTnRl-48" value="Google ML Engine" style="rounded=1;whiteSpace=wrap;html=1;fillColor=#555758;shadow=1;fontColor=#ffffff;fontFamily=Courier New;fontSize=14;" vertex="1" parent="1">
          <mxGeometry x="-130" y="1945" width="210" height="40" as="geometry" />
        </mxCell>
        <mxCell id="7lGttJJsrB_2lGpmTnRl-49" value="Microsoft Azure Machine Learning Studio" style="rounded=1;whiteSpace=wrap;html=1;fillColor=#555758;shadow=1;fontColor=#ffffff;fontFamily=Courier New;fontSize=14;" vertex="1" parent="1">
          <mxGeometry x="-130" y="1995" width="210" height="40" as="geometry" />
        </mxCell>
        <mxCell id="7lGttJJsrB_2lGpmTnRl-53" value="keep exploring and stay up-to-date" style="text;html=1;strokeColor=none;fillColor=none;align=center;verticalAlign=middle;whiteSpace=wrap;rounded=0;fontStyle=1;fontFamily=Courier New;fontSize=20;" vertex="1" parent="1">
          <mxGeometry x="281" y="2200" width="264" height="50" as="geometry" />
        </mxCell>
      </root>
    </mxGraphModel>
  </diagram>
</mxfile>
